<svg class="icon" viewBox="0 0 1024 1024" xmlns="http://www.w3.org/2000/svg" width="200" height="200"><defs><style/></defs><path d="M676.23 740.302c-49.626 34.763-107.671 52.21-167.056 51.41a313.072 313.072 0 01-23.314-1.176c-3.158-.288-6.315-.798-9.472-1.181-6.06-.83-12.119-1.627-18.052-2.776-3.636-.702-7.207-1.626-10.78-2.487-5.803-1.34-11.544-2.712-17.19-4.403-2.743-.827-5.39-1.785-8.1-2.709-6.506-2.17-13.014-4.433-19.296-7.081-1.435-.574-2.807-1.245-4.241-1.882-7.368-3.252-14.671-6.665-21.72-10.493-.351-.16-.639-.318-.99-.51-23.856-13.108-45.702-29.469-64.87-48.606-.32-.285-.606-.636-.957-1.019a263.706 263.706 0 01-16.999-18.721c-1.148-1.372-2.233-2.872-3.38-4.307-39.006-48.798-62.51-110.541-62.51-177.709h75.076L182.236 326.455 62.126 506.652h75.077c0 78.969 24.654 152.196 66.466 212.696.51.862.86 1.754 1.435 2.583 4.337 6.188 9.153 11.93 13.778 17.766 1.754 2.198 3.38 4.497 5.166 6.664 6.857 8.325 14.13 16.106 21.592 23.763.734.733 1.404 1.497 2.073 2.2 25.1 25.1 53.485 46.277 84.359 63.21.828.48 1.626.99 2.486 1.437 8.898 4.752 18.02 9.09 27.301 13.17 2.328.99 4.56 2.107 6.92 3.094 7.91 3.287 16.043 6.156 24.24 8.898 3.891 1.308 7.75 2.68 11.673 3.86 7.175 2.136 14.48 3.923 21.879 5.646 4.91 1.146 9.76 2.392 14.733 3.315 2.074.449 4.019 1.085 6.092 1.403 6.952 1.244 13.97 1.914 20.923 2.775 2.518.287 4.975.702 7.494.99 12.535 1.212 25.037 2.04 37.508 2.04 76.288 0 150.726-23.345 214.608-68.06 20.349-14.32 25.291-42.355 11.036-62.767-14.289-20.408-42.387-25.32-62.735-11.033m211.74-233.65c-.032-78.743-24.526-151.811-66.147-212.217-.607-1.052-.989-2.073-1.69-3.063-5.166-7.367-10.81-14.257-16.426-21.145-.67-.861-1.275-1.723-1.944-2.55-38.113-46.247-85.92-81.935-140.14-105.25-1.498-.67-2.964-1.403-4.464-2.041-8.642-3.54-17.51-6.698-26.44-9.695-3.19-1.053-6.347-2.201-9.632-3.19-7.75-2.329-15.627-4.273-23.6-6.091-4.37-.99-8.77-2.106-13.204-2.999-2.2-.415-4.275-1.085-6.443-1.467-5.932-1.021-11.896-1.468-17.828-2.233-4.114-.51-8.133-1.15-12.28-1.564-9.982-.956-19.868-1.339-29.787-1.53-1.786 0-3.54-.255-5.358-.255-.32 0-.606.095-.924.095-76.225.063-150.536 23.058-214.323 67.774-20.38 14.255-25.323 42.32-11.067 62.733 14.224 20.412 42.387 25.324 62.735 11.036 49.275-34.51 106.746-51.955 165.686-51.444 8.483.063 16.84.478 25.068 1.275 2.55.288 5.07.639 7.59.958 6.76.829 13.523 1.785 20.125 3.093 2.934.573 5.805 1.34 8.676 1.977 6.506 1.468 12.98 3.03 19.327 4.944 2.01.638 3.987 1.371 5.995 2.041 7.272 2.36 14.385 4.912 21.4 7.814.703.32 1.435.67 2.137.957 41.972 18.051 78.777 45.863 107.545 80.627.16.222.35.51.51.701 40.409 49.211 64.776 112.168 64.806 180.707h-75.107l120.142 180.167 120.107-180.165h-75.046z"/></svg>